<?xml version="1.0" encoding="UTF-8" standalone="no"?>
<!DOCTYPE svg PUBLIC "-//W3C//DTD SVG 1.1//EN" "http://www.w3.org/Graphics/SVG/1.1/DTD/svg11.dtd">
<svg width="100%" height="100%" viewBox="0 0 297 109" version="1.1" xmlns="http://www.w3.org/2000/svg" xmlns:xlink="http://www.w3.org/1999/xlink" xml:space="preserve" xmlns:serif="http://www.serif.com/" style="fill-rule:evenodd;clip-rule:evenodd;stroke-linejoin:round;stroke-miterlimit:2;">
    <g id="minid-elements-logo" transform="matrix(1,0,0,0.889006,9.60224,7.0871)">
        <rect x="-9.602" y="-7.972" width="296.26" height="122.116" style="fill:none;"/>
        <g transform="matrix(1,0,0,1.12485,0.397756,1.02688)">
            <path d="M138.37,10.37C138.51,10.09 138.65,10.02 138.87,10.02L150.37,10.02C150.377,10.02 150.384,10.019 150.391,10.019C150.572,10.019 150.721,10.168 150.721,10.349C150.721,10.356 150.72,10.363 150.72,10.37L150.72,59.65C150.72,59.657 150.721,59.664 150.721,59.671C150.721,59.852 150.572,60.001 150.391,60.001C150.384,60.001 150.377,60 150.37,60L144.37,60C144.363,60 144.356,60.001 144.349,60.001C144.168,60.001 144.019,59.852 144.019,59.671C144.019,59.664 144.02,59.657 144.02,59.65L144.02,17.12C144.02,16.62 143.38,16.69 143.31,17.05L130.81,59.65C130.703,59.866 130.481,60.002 130.24,60L120.59,60C120.35,60 120.129,59.864 120.02,59.65L107.52,17.05C107.482,16.888 107.336,16.773 107.17,16.773C106.977,16.773 106.817,16.928 106.81,17.12L106.81,59.65C106.81,59.657 106.811,59.664 106.811,59.671C106.811,59.852 106.662,60.001 106.481,60.001C106.474,60.001 106.467,60 106.46,60L100.46,60C100.45,60.001 100.44,60.001 100.429,60.001C100.248,60.001 100.099,59.852 100.099,59.671C100.099,59.664 100.1,59.657 100.1,59.65L100.1,10.37C100.1,10.363 100.099,10.356 100.099,10.349C100.099,10.168 100.248,10.019 100.429,10.019C100.44,10.019 100.45,10.019 100.46,10.02L111.96,10.02C112.17,10.02 112.31,10.09 112.45,10.37L125,53C125.046,53.157 125.191,53.266 125.355,53.266C125.519,53.266 125.664,53.157 125.71,53L138.37,10.37Z" style="fill:#1e2b3c;fill-rule:nonzero;"/>
        </g>
        <g transform="matrix(1,0,0,1.12485,0.397756,1.02688)">
            <path d="M161.09,17.89C161.083,17.89 161.077,17.891 161.07,17.891C160.883,17.891 160.73,17.737 160.73,17.551C160.73,17.547 160.73,17.544 160.73,17.54L160.73,10.36C160.73,10.356 160.73,10.353 160.73,10.349C160.73,10.163 160.883,10.009 161.07,10.009C161.077,10.009 161.083,10.01 161.09,10.01L168.19,10.01C168.197,10.01 168.204,10.009 168.211,10.009C168.392,10.009 168.541,10.158 168.541,10.339C168.541,10.346 168.54,10.353 168.54,10.36L168.54,17.54C168.54,17.547 168.541,17.554 168.541,17.561C168.541,17.742 168.392,17.891 168.211,17.891C168.204,17.891 168.197,17.89 168.19,17.89L161.09,17.89ZM168.09,59.65C168.09,59.657 168.091,59.664 168.091,59.671C168.091,59.852 167.942,60.001 167.761,60.001C167.75,60.001 167.74,60.001 167.73,60L161.73,60C161.72,60.001 161.71,60.001 161.699,60.001C161.518,60.001 161.369,59.852 161.369,59.671C161.369,59.664 161.37,59.657 161.37,59.65L161.37,24.43C161.37,24.423 161.369,24.416 161.369,24.409C161.369,24.228 161.518,24.079 161.699,24.079C161.71,24.079 161.72,24.079 161.73,24.08L167.73,24.08C167.74,24.079 167.75,24.079 167.761,24.079C167.942,24.079 168.091,24.228 168.091,24.409C168.091,24.416 168.09,24.423 168.09,24.43L168.09,59.65Z" style="fill:#1e2b3c;fill-rule:nonzero;"/>
        </g>
        <g transform="matrix(1,0,0,1.12485,0.397756,1.02688)">
            <path d="M184.24,24.08C184.45,24.08 184.52,24.22 184.59,24.43L185.3,27.63C185.37,28.05 185.94,27.91 186.08,27.7C187.5,25.57 190.63,23.37 195.38,23.37C205.68,23.37 210.86,30.89 210.86,40.12L210.86,59.65C210.86,59.657 210.861,59.664 210.861,59.671C210.861,59.852 210.712,60.001 210.531,60.001C210.524,60.001 210.517,60 210.51,60L204.51,60C204.503,60 204.496,60.001 204.489,60.001C204.308,60.001 204.159,59.852 204.159,59.671C204.159,59.664 204.16,59.657 204.16,59.65L204.16,40.12C204.16,34.73 201.74,29.4 194.71,29.4C188.71,29.4 185.34,34.58 185.34,40.12L185.34,59.65C185.34,59.657 185.341,59.663 185.341,59.67C185.341,59.851 185.192,60 185.011,60C185.007,60 185.004,60 185,60L179,60C178.993,60 178.986,60.001 178.979,60.001C178.798,60.001 178.649,59.852 178.649,59.671C178.649,59.664 178.65,59.657 178.65,59.65L178.65,24.43C178.65,24.423 178.649,24.416 178.649,24.409C178.649,24.228 178.798,24.079 178.979,24.079C178.986,24.079 178.993,24.08 179,24.08L184.24,24.08Z" style="fill:#1e2b3c;fill-rule:nonzero;"/>
        </g>
        <g transform="matrix(1,0,0,1.12485,0.397756,1.02688)">
            <path d="M227.26,10C227.267,10 227.273,9.999 227.28,9.999C227.467,9.999 227.62,10.153 227.62,10.339C227.62,10.343 227.62,10.346 227.62,10.35L227.62,59.65C227.62,59.654 227.62,59.657 227.62,59.661C227.62,59.847 227.467,60.001 227.28,60.001C227.273,60.001 227.267,60 227.26,60L221.26,60C221.25,60.001 221.24,60.001 221.229,60.001C221.048,60.001 220.899,59.852 220.899,59.671C220.899,59.664 220.9,59.657 220.9,59.65L220.9,10.37C220.9,10.363 220.899,10.356 220.899,10.349C220.899,10.168 221.048,10.019 221.229,10.019C221.24,10.019 221.25,10.019 221.26,10.02L227.26,10Z" style="fill:#1e2b3c;fill-rule:nonzero;"/>
        </g>
        <g transform="matrix(1,0,0,1.12485,0.397756,1.02688)">
            <path d="M238.62,60C238.613,60 238.606,60.001 238.599,60.001C238.418,60.001 238.269,59.852 238.269,59.671C238.269,59.664 238.27,59.657 238.27,59.65L238.27,10.37C238.27,10.363 238.269,10.356 238.269,10.349C238.269,10.168 238.418,10.019 238.599,10.019C238.606,10.019 238.613,10.02 238.62,10.02L256.94,10.02C271.85,10.09 279.16,20.6 279.16,35.51C279.16,50.42 271.85,60 256.94,60L238.62,60ZM256.94,54C266.45,54 272.06,47.61 272.06,35.54C272.06,23.68 266.45,16.08 256.94,16.08L245.37,16.08C245.363,16.08 245.356,16.079 245.349,16.079C245.163,16.079 245.009,16.233 245.009,16.419C245.009,16.426 245.01,16.433 245.01,16.44L245.01,53.64C245.01,53.647 245.009,53.654 245.009,53.661C245.009,53.847 245.163,54.001 245.349,54.001C245.356,54.001 245.363,54 245.37,54L256.94,54Z" style="fill:#1e2b3c;fill-rule:nonzero;"/>
        </g>
        <g transform="matrix(1,0,0,1.12485,0.397756,1.02688)">
            <path d="M35,70L1.4,70C0.632,70 0,69.368 0,68.6L0,1.4C-0,0.632 0.632,0 1.4,0L35,0C54.2,-0 70,15.8 70,35C70,54.2 54.2,70 35,70ZM35,10C21.285,10 10,21.285 10,35C10,48.715 21.285,60 35,60C48.715,60 60,48.715 60,35C60,21.285 48.715,10 35,10Z" style="fill:rgb(0,98,184);fill-rule:nonzero;"/>
        </g>
        <g transform="matrix(1,0,0,1.12485,-11.6952,-4.04823)">
            <text x="12.578px" y="92.349px" style="font-family:'Arial-BoldMT', 'Arial', sans-serif;font-weight:700;font-size:12px;fill:#1e2b3c;">E<tspan x="50.27px 87.288px 124.98px 164.664px 202.356px 240.71px 277.728px " y="92.349px 92.349px 92.349px 92.349px 92.349px 92.349px 92.349px ">LEMENTS</tspan></text>
        </g>
    </g>
</svg>
